<?xml version="1.0" encoding="UTF-8" standalone="no"?>
<svg
   xmlns:dc="http://purl.org/dc/elements/1.1/"
   xmlns:cc="http://creativecommons.org/ns#"
   xmlns:rdf="http://www.w3.org/1999/02/22-rdf-syntax-ns#"
   xmlns:svg="http://www.w3.org/2000/svg"
   xmlns="http://www.w3.org/2000/svg"
   xmlns:sodipodi="http://sodipodi.sourceforge.net/DTD/sodipodi-0.dtd"
   xmlns:inkscape="http://www.inkscape.org/namespaces/inkscape"
   version="1.1"
   id="svg2"
   viewBox="0 0 800 600"
   height="600"
   width="800"
   inkscape:version="0.91 r13725"
   sodipodi:docname="drawing.svg">
  <sodipodi:namedview
     pagecolor="#ffffff"
     bordercolor="#666666"
     borderopacity="1"
     objecttolerance="10"
     gridtolerance="10"
     guidetolerance="10"
     inkscape:pageopacity="0"
     inkscape:pageshadow="2"
     inkscape:window-width="1920"
     inkscape:window-height="1141"
     id="namedview7"
     showgrid="false"
     inkscape:zoom="1.5733333"
     inkscape:cx="304.96648"
     inkscape:cy="300.90684"
     inkscape:window-x="1920"
     inkscape:window-y="27"
     inkscape:window-maximized="1"
     inkscape:current-layer="svg2" />
  <defs
     id="defs4" />
  <metadata
     id="metadata7">
    <rdf:RDF>
      <cc:Work
         rdf:about="">
        <dc:format>image/svg+xml</dc:format>
        <dc:type
           rdf:resource="http://purl.org/dc/dcmitype/StillImage" />
        <dc:title />
      </cc:Work>
    </rdf:RDF>
  </metadata>
  <path
     style="fill:#000000"
     d="m 306.3817,555.25066 c -12.31663,-13.47421 -22.72268,-35.04668 -24.30607,-50.38821 -1.19284,-11.55754 -0.83206,-13.05095 3.74467,-15.50032 3.91395,-2.09469 7.71346,-2.07512 16.7226,0.0861 11.06508,2.65446 11.87318,2.53085 15.89097,-2.4309 2.32818,-2.87519 3.85564,-5.60501 3.39436,-6.06629 -0.46127,-0.46127 -9.50075,-3.01418 -20.08773,-5.67309 -10.58697,-2.65893 -25.72531,-7.75393 -33.64074,-11.32224 l -14.3917,-6.48782 -32.95632,33.66032 c -28.49362,29.10226 -33.5195,33.3221 -37.11529,31.16284 -7.28458,-4.37436 -20.66965,-23.9529 -24.6877,-36.11106 -4.74065,-14.34465 -6.81161,-35.79486 -3.87216,-40.10641 3.64277,-5.34317 13.08811,-1.05001 26.50147,12.04563 l 12.55729,12.25983 4.37717,-4.84406 c 2.40744,-2.66424 8.05315,-10.39214 12.54601,-17.17311 l 8.16885,-12.32908 -12.33223,-11.27096 c -16.42133,-15.00811 -20.31095,-21.86652 -27.70041,-48.84304 -5.88411,-21.48098 -6.30579,-26.25819 -7.18554,-81.40612 l -0.9346,-58.58598 16.63718,-36.4158 c 9.15045,-20.02868 20.26461,-42.08156 24.69812,-49.00638 7.74882,-12.10309 8.06504,-13.43641 8.16706,-34.43501 0.0834,-17.175092 1.00058,-23.210311 4.29068,-28.234511 5.13714,-7.844771 20.33888,-15.045516 31.90553,-15.112979 5.85724,-0.03415 17.22877,-4.348073 35.48258,-13.46069 14.77459,-7.375729 32.41236,-15.231475 39.19505,-17.457215 25.07707,-8.229047 52.26914,-0.684272 78.51114,21.783889 13.95975,11.95219 16.78592,23.932079 14.83397,62.879916 -2.19745,43.84579 -12.55782,87.73568 -27.81711,117.8423 -3.49545,6.89653 -8.33086,18.22807 -10.74534,25.18119 -4.81202,13.85742 -11.61169,43.72705 -10.26159,45.07717 0.46665,0.46663 7.95329,-0.81734 16.637,-2.85326 29.4074,-6.89472 56.70864,-2.39393 71.97962,11.86632 l 5.82866,5.44289 18.57189,-21.15632 c 46.51572,-52.98885 55.00751,-58.30318 76.02737,-47.57965 9.51641,4.85491 11.63715,8.26085 11.63715,18.68954 0,9.15804 -6.22173,20.72742 -28.8916,53.72426 -10.54986,15.35574 -19.18159,28.4842 -19.18159,29.17435 0,0.69017 6.23274,4.57687 13.85055,8.6371 11.98023,6.38541 13.75768,8.171 13.1629,13.2232 -0.61827,5.2516 -10.13122,13.95786 -18.5387,16.9666 -1.82755,0.65403 -1.02185,2.86967 2.39895,6.59702 7.48817,8.15923 7.11808,23.01611 -0.76984,30.90403 -5.70903,5.70903 -6.67732,5.88095 -27.10622,4.81237 -20.31605,-1.06264 -21.41207,-0.8725 -26.70056,4.63224 -10.84828,11.29191 -35.56758,29.97258 -47.90286,36.20078 -15.52437,7.8384 -32.62073,9.35637 -52.61377,4.6715 -8.18389,-1.91771 -15.57933,-2.78325 -16.43432,-1.92343 -0.85497,0.8598 -7.19607,14.21522 -14.09133,29.67871 -13.46679,30.20099 -26.32274,48.57273 -33.98964,48.57273 -2.58604,0 -8.62536,-4.30566 -13.46383,-9.59886 z m 21.47319,-10.53922 c 5.19988,-5.74582 18.32548,-34.98499 24.73619,-55.10345 l 5.37461,-16.86696 14.91448,1.41601 c 48.1571,4.57215 46.5369,4.5974 57.29945,-0.89325 17.4489,-8.90175 43.62605,-29.79841 47.82273,-38.17583 4.043,-8.07071 2.88835,-28.27007 -2.26592,-39.63917 -10.90808,-24.06068 -27.51782,-32.53305 -63.26536,-32.27064 -28.4887,0.20923 -39.4115,-5.51017 -21.03717,-11.01526 16.95426,-5.07962 33.77958,-6.85716 46.0949,-4.86981 10.71968,1.72985 12.67019,1.39673 17.38684,-2.96951 l 5.31265,-4.91793 -5.96547,-5.13126 c -9.67504,-8.32213 -29.26688,-12.86461 -49.1853,-11.40394 -23.30171,1.70881 -32.16269,5.05301 -32.16269,12.13852 0,5.53631 -3.10663,6.79858 -10.11417,4.10952 -2.86651,-1.09998 -3.62103,-5.04905 -3.62103,-18.95191 0,-15.54178 1.7185,-22.69066 14.93675,-62.13575 24.91166,-74.33986 33.96881,-109.85338 34.13681,-133.85213 0.12879,-18.39821 -0.5728,-22.01789 -6.55668,-33.827482 -14.52407,-28.66434 -31.09027,-40.102156 -54.57249,-37.678579 -11.864,1.224475 -61.19876,21.000589 -61.19876,24.531869 0,0.964043 2.16329,6.64329 4.80731,12.620547 2.64403,5.977257 4.80732,14.420005 4.80732,18.761665 0,6.43831 0.6965,7.60701 3.77718,6.33795 7.1785,-2.95711 10.64514,-2.17397 11.32265,2.55787 0.55379,3.86768 -2.52843,6.33558 -16.59558,13.28794 -18.89601,9.33892 -22.45132,15.15561 -9.26348,15.15561 6.48606,0 8.01219,-0.87208 8.01219,-4.5784 0,-6.14474 2.66556,-5.76503 9.33006,1.32909 5.43677,5.78724 5.45929,5.97363 1.1061,9.1568 -5.24441,3.83486 -32.20472,4.43346 -41.44529,0.92021 -5.06475,-1.92562 -5.95981,-3.46135 -5.16672,-8.86503 0.90592,-6.17242 0.32804,-6.68165 -10.39016,-9.1557 -6.24219,-1.44087 -11.56105,-2.34477 -11.8197,-2.00867 -0.25865,0.33611 -2.05468,5.3649 -3.99119,11.1751 l -3.52092,10.56399 19.78601,3.84349 c 51.78821,10.06 117.7445,28.18185 115.54187,31.74577 -2.14028,3.46304 -25.99295,0.5047 -87.67666,-10.87416 -30.70758,-5.66466 -55.99306,-10.05559 -56.18996,-9.75764 -0.1969,0.29796 -7.17479,16.5089 -15.50642,36.02433 -14.78566,34.63287 -15.21092,36.18715 -17.75798,64.90387 -5.96063,67.2026 8.02518,122.8882 37.52576,149.41175 22.42667,20.16352 50.1568,33.34825 85.99257,40.88654 18.73754,3.94154 34.54502,9.95596 34.54502,13.14362 0,4.07919 -20.70709,35.66787 -24.27981,37.03888 -1.90048,0.72927 -7.47536,-0.72486 -12.38861,-3.23141 -4.91324,-2.50654 -9.48043,-4.55736 -10.1493,-4.55736 -2.49141,0 10.52897,30.91574 16.0922,38.20952 6.5474,8.58406 10.07283,9.37503 15.42517,3.46077 z m 74.68799,-78.54325 c -1.87737,-3.5079 -1.89489,-5.51109 -0.0641,-7.34178 3.40937,-3.40937 10.4819,3.63177 8.59281,8.55464 -1.92369,5.01301 -5.46624,4.50922 -8.52862,-1.21286 z m -13.60366,-25.92797 c 0,-6.74689 0.0854,-6.78107 7.96376,-3.1914 7.25051,3.30357 6.35074,7.37186 -1.84501,8.3421 -5.23093,0.61925 -6.11875,-0.1282 -6.11875,-5.1507 z m -3.11704,-16.17645 c -2.93318,-7.64372 6.64476,-17.30398 11.92313,-12.02562 3.74955,3.74955 3.27852,7.30429 -1.54644,11.67082 -5.19852,4.7046 -8.66206,4.82302 -10.37669,0.3548 z m -94.79439,-27.85792 c -1.60032,-0.64389 -4.45965,-4.16806 -6.35409,-7.83149 -1.97261,-3.81461 -5.30579,-6.66077 -7.80052,-6.66077 -4.58333,0 -11.55072,-5.66105 -11.55072,-9.38505 0,-1.20474 5.67343,-7.4708 12.60762,-13.92458 14.82322,-13.79627 17.15184,-19.98258 28.70941,-76.27053 7.26102,-35.3628 10.87952,-44.63939 17.41235,-44.63939 6.75262,0 3.01221,17.56171 -17.62208,82.73802 l -11.33697,35.80942 -10.77628,5.39617 c -14.0731,7.047 -15.33533,11.11914 -3.44657,11.11914 8.29295,0 9.18123,0.59911 10.47428,7.06433 1.77762,8.88812 6.02666,7.71516 9.50577,-2.62413 3.32459,-9.88002 8.36471,-11.00111 14.48401,-3.22168 2.61,3.31808 5.81695,5.37065 7.12655,4.56128 4.23086,-2.61482 2.54336,-9.52447 -4.48651,-18.37039 -9.45183,-11.89358 -9.20523,-23.42027 1.01996,-47.67617 4.33816,-10.29084 11.18822,-29.32098 15.22235,-42.28922 6.46758,-20.79087 7.90326,-23.49744 12.14293,-22.89199 3.7434,0.53457 4.96475,2.57532 5.51533,9.21553 0.5326,6.42352 -3.28183,18.12227 -15.4521,47.39117 -8.8876,21.37425 -16.15927,40.46576 -16.15927,42.42559 0,1.95983 3.09042,7.82954 6.8676,13.04378 8.13563,11.23091 8.39146,13.95885 2.13332,22.74762 -5.29413,7.4349 -9.31367,8.35468 -13.65438,3.12443 -2.55967,-3.08421 -3.75881,-2.51255 -9.60377,4.5784 -6.50636,7.89334 -8.98643,8.98128 -14.97822,6.57051 z m 119.2689,-2.09231 c -1.67608,-4.36781 6.83317,-13.63983 10.46041,-11.39806 1.38606,0.85664 2.52011,4.58714 2.52011,8.29002 0,5.67744 -0.9081,6.73248 -5.79484,6.73248 -3.18718,0 -6.42072,-1.63098 -7.18568,-3.62444 z m -4.77261,-51.88864 c -1.25913,-1.57382 -2.99988,-5.17931 -3.86836,-8.01219 -1.24184,-4.05081 -0.67719,-5.1507 2.64428,-5.1507 5.51525,0 14.39881,6.28456 14.39881,10.18629 0,5.42836 -9.49663,7.57398 -13.17473,2.9766 z M 355.74583,174.24241 c -24.05091,-5.95744 -28.40896,-7.98438 -32.94408,-15.32235 -4.04478,-6.54459 -4.34829,-8.8199 -2.21229,-16.5849 8.63673,-31.3971 25.46581,-41.25861 53.96226,-31.62082 15.37218,5.19903 22.78186,11.08537 25.91872,20.59016 2.44484,7.40795 2.0766,9.41281 -3.8413,20.91447 -3.59992,6.99661 -9.20986,14.69924 -12.46652,17.11695 -6.05312,4.49381 -20.21278,6.93864 -28.41679,4.90649 z m 28.61499,-14.58114 c 6.05592,-6.05591 5.74644,-14.56405 -1.06164,-29.18729 -6.39069,-13.72668 -10.79948,-15.99671 -8.1365,-4.18937 3.80447,16.86849 -3.27706,26.93877 -21.20114,30.14907 l -9.6617,1.73047 9.15679,2.86183 c 14.15968,4.42542 25.62015,3.91933 30.90419,-1.36471 z m -188.4922,341.38864 c 6.09359,-4.87238 19.77735,-17.82758 30.40834,-28.78934 l 19.32908,-19.9305 -7.40675,-4.6896 c -4.07371,-2.57931 -7.657,-4.30358 -7.96286,-3.83176 -3.26282,5.03333 -20.08693,25.61944 -26.44764,32.36152 l -8.12454,8.61167 -16.61091,-16.50007 c -9.13601,-9.07503 -17.27221,-15.83876 -18.08045,-15.03051 -3.41997,3.41997 9.78042,44.9109 16.75109,52.65132 4.89122,5.43136 5.47976,5.27395 18.14464,-4.85273 z m 336.95533,-72.38459 c 4.99245,-4.75375 1.14366,-15.26633 -10.05485,-27.46382 -5.61721,-6.11832 -10.21312,-11.43533 -10.21312,-11.81559 0,-0.38028 2.6424,0.31323 5.87202,1.54113 9.74913,3.70663 21.16177,2.74734 23.69816,-1.99192 2.99047,-5.5878 -2.82927,-14.08102 -9.66949,-14.11149 -5.54082,-0.0247 -29.05749,-10.32248 -29.05749,-12.7241 0,-0.8311 10.8161,-12.79855 24.03577,-26.59434 26.52577,-27.6818 35.82381,-41.38211 36.16113,-53.28205 0.27383,-9.65994 -6.01602,-17.28096 -14.19542,-17.19967 -4.53976,0.0451 -7.77925,2.76927 -13.73865,11.55322 -4.28898,6.32181 -22.89186,26.12544 -41.33976,44.00807 l -33.54159,32.51384 9.1915,6.88989 c 20.62417,15.45975 30.50314,35.83776 27.94517,57.64447 l -1.3939,11.88277 9.73317,2.20164 c 11.1132,2.51381 22.04032,1.25851 26.56735,-3.05205 z M 281.60456,118.19798 c 5.19732,-5.19732 5.08633,-12.73339 -0.38393,-26.068082 L 278.40336,85.2623 276.67,92.997676 c -2.58909,11.554244 -6.33997,17.349764 -14.25471,22.025114 -6.48468,3.83059 -6.72633,4.36665 -2.68211,5.9497 8.23966,3.22529 16.98039,2.11648 21.87138,-2.77451 z"
     id="path3344"
     inkscape:connector-curvature="0" />
</svg>
